<svg width="20" height="21" viewBox="0 0 20 21" fill="none" xmlns="http://www.w3.org/2000/svg">
<mask id="mask0_13_98" style="mask-type:alpha" maskUnits="userSpaceOnUse" x="0" y="0" width="20" height="21">
<path d="M8 9C8 9.82843 7.32843 10.5 6.5 10.5C5.67157 10.5 5 9.82843 5 9C5 8.17157 5.67157 7.5 6.5 7.5C7.32843 7.5 8 8.17157 8 9ZM4 12.1988C4 11.6748 4.42479 11.25 4.94879 11.25H8.05121C8.57521 11.25 9 11.6748 9 12.1988C9 13.046 8.42338 13.7845 7.60144 13.99L7.54243 14.0048C6.85801 14.1759 6.14199 14.1759 5.45757 14.0048L5.39856 13.99C4.57661 13.7845 4 13.046 4 12.1988ZM11.5 8.5C11.2239 8.5 11 8.72386 11 9C11 9.27614 11.2239 9.5 11.5 9.5H14.5C14.7761 9.5 15 9.27614 15 9C15 8.72386 14.7761 8.5 14.5 8.5H11.5ZM11.5 11.5C11.2239 11.5 11 11.7239 11 12C11 12.2761 11.2239 12.5 11.5 12.5H14.5C14.7761 12.5 15 12.2761 15 12C15 11.7239 14.7761 11.5 14.5 11.5H11.5ZM2 6.25C2 5.2835 2.7835 4.5 3.75 4.5H16.25C17.2165 4.5 18 5.2835 18 6.25V14.75C18 15.7165 17.2165 16.5 16.25 16.5H3.75C2.7835 16.5 2 15.7165 2 14.75V6.25ZM3.75 5.5C3.33579 5.5 3 5.83579 3 6.25V14.75C3 15.1642 3.33579 15.5 3.75 15.5H16.25C16.6642 15.5 17 15.1642 17 14.75V6.25C17 5.83579 16.6642 5.5 16.25 5.5H3.75Z" fill="white"/>
</mask>
<g mask="url(#mask0_13_98)">
<rect y="0.5" width="20" height="20" fill="#242424"/>
</g>
</svg>
