<svg width="24" height="24" viewBox="0 0 24 24" fill="none" xmlns="http://www.w3.org/2000/svg">
<path d="M6.74984 4.58334H13.8748C14.2948 4.58334 14.6975 4.75016 14.9944 5.04709C15.2914 5.34402 15.4582 5.74675 15.4582 6.16668V7.75001H13.8748V6.16668H6.74984V18.8333H13.8748V17.25H15.4582V18.8333C15.4582 19.2533 15.2914 19.656 14.9944 19.9529C14.6975 20.2499 14.2948 20.4167 13.8748 20.4167H6.74984C6.32991 20.4167 5.92718 20.2499 5.63025 19.9529C5.33332 19.656 5.1665 19.2533 5.1665 18.8333V6.16668C5.1665 5.74675 5.33332 5.34402 5.63025 5.04709C5.92718 4.75016 6.32991 4.58334 6.74984 4.58334Z" fill="#14191F"/>
<path d="M14.7379 15.3421L15.8542 16.4583L19.8125 12.5L15.8542 8.54166L14.7379 9.65791L16.7804 11.7083H9.125V13.2917H16.7804L14.7379 15.3421Z" fill="#14191F"/>
</svg>
