<svg width="24" height="24" viewBox="0 0 24 24" fill="none" xmlns="http://www.w3.org/2000/svg">
<path d="M19.4249 17.065L19.2549 16.915C18.7726 16.4853 18.3505 15.9925 17.9999 15.45C17.617 14.7013 17.3875 13.8836 17.3249 13.045V10.575C17.3282 9.25782 16.8504 7.98475 15.9813 6.995C15.1121 6.00525 13.9115 5.36694 12.6049 5.20001V4.55501C12.6049 4.37798 12.5346 4.2082 12.4094 4.08302C12.2842 3.95784 12.1144 3.88751 11.9374 3.88751C11.7604 3.88751 11.5906 3.95784 11.4654 4.08302C11.3402 4.2082 11.2699 4.37798 11.2699 4.55501V5.21001C9.97503 5.38898 8.78889 6.03114 7.93117 7.01757C7.07345 8.00399 6.60227 9.26783 6.6049 10.575V13.045C6.54228 13.8836 6.31279 14.7013 5.9299 15.45C5.58534 15.9912 5.17 16.4839 4.6949 16.915L4.5249 17.065V18.475H19.4249V17.065Z" fill="#14191F"/>
<path d="M10.6599 19C10.7038 19.3169 10.8608 19.6073 11.1021 19.8175C11.3433 20.0276 11.6525 20.1434 11.9724 20.1434C12.2924 20.1434 12.6015 20.0276 12.8428 19.8175C13.084 19.6073 13.2411 19.3169 13.2849 19H10.6599Z" fill="#14191F"/>
<circle cx="18" cy="6" r="5" fill="#D51A52" stroke="#F178B6" stroke-width="2"/>
</svg>
